PathFileType	4	(X/Y/Z)	C:\Users\Basilio\Documents\Thesis Gigler\squatting_fais\c3dfiles\054\SLS_back_pre2\markers_experimental.trc
DataRate	CameraRate	NumFrames	NumMarkers	Units	OrigDataRate	OrigDataStartFrame	OrigNumFrames
200.000000	200.000000	4	61	mm	200.000000	575	1535
Frame#	Time	FHD			LBHD			RBHD			C7			T10			CLAV			LSHO			LUUPA			LMUPA			LDUPA			LLEP			LMEP			LRAD			LUL			LRFIN			RSHO			RUPA1			RMUPA			RDUPA			RLEP			RMEP			RRAD			RUL			RUFIN			LASI			RASI			USACR			LSACR			RSACR			LTHI1			LTHI2			LTHI3			LTHI4			LLFC			LMFC			LTIB1			LTIB2			LTIB3			LTIB4			LLMAL			LMMAL			LHEE			LMT1			LMT2			LMT5			RTHI			RTHI2			RTHI3			RTHI4			RLFC			RMFC			RTIB1			RTIB2			RTIB3			RTIB4			RLMAL			RMMAL			RHEE			RMT1			RMT2			RMT5			
		X1	Y1	Z1	X2	Y2	Z2	X3	Y3	Z3	X4	Y4	Z4	X5	Y5	Z5	X6	Y6	Z6	X7	Y7	Z7	X8	Y8	Z8	X9	Y9	Z9	X10	Y10	Z10	X11	Y11	Z11	X12	Y12	Z12	X13	Y13	Z13	X14	Y14	Z14	X15	Y15	Z15	X16	Y16	Z16	X17	Y17	Z17	X18	Y18	Z18	X19	Y19	Z19	X20	Y20	Z20	X21	Y21	Z21	X22	Y22	Z22	X23	Y23	Z23	X24	Y24	Z24	X25	Y25	Z25	X26	Y26	Z26	X27	Y27	Z27	X28	Y28	Z28	X29	Y29	Z29	X30	Y30	Z30	X31	Y31	Z31	X32	Y32	Z32	X33	Y33	Z33	X34	Y34	Z34	X35	Y35	Z35	X36	Y36	Z36	X37	Y37	Z37	X38	Y38	Z38	X39	Y39	Z39	X40	Y40	Z40	X41	Y41	Z41	X42	Y42	Z42	X43	Y43	Z43	X44	Y44	Z44	X45	Y45	Z45	X46	Y46	Z46	X47	Y47	Z47	X48	Y48	Z48	X49	Y49	Z49	X50	Y50	Z50	X51	Y51	Z51	X52	Y52	Z52	X53	Y53	Z53	X54	Y54	Z54	X55	Y55	Z55	X56	Y56	Z56	X57	Y57	Z57	X58	Y58	Z58	X59	Y59	Z59	X60	Y60	Z60	X61	Y61	Z61	

576	2.875	-99.65516662597659	1760.731689453125	-1077.832397460938	-261.1742858886719	1706.800903320313	-1148.354858398438	-278.9504699707032	1710.00927734375	-1009.011291503906	-314.9808044433594	1551.567749023438	-1061.972900390625	-394.9892578125001	1232.789672851563	-1053.049194335938	-180.0352478027344	1475.40185546875	-1065.048095703125	-243.4119567871094	1534.960327148438	-1216.779663085938	-148.9722137451172	1371.282958984375	-1357.631591796875	-105.3551101684571	1394.0126953125	-1352.797973632813	-88.81714630126955	1343.4140625	-1378.930786132813	-32.42581176757813	1328.763427734375	-1386.251831054688	-43.61357116699219	1266.507934570313	-1336.031127929688	224.7186431884766	1303.179077148438	-1305.699951171875	231.4893035888672	1262.812622070313	-1372.477416992188	314.2717895507813	1308.095458984375	-1325.466186523438	-235.4297790527344	1539.331298828125	-913.1851806640627	-145.4191589355469	1365.481567382813	-770.8000488281252	-99.50600433349612	1380.494995117188	-775.423767089844	-90.54292297363283	1324.989624023438	-753.4763183593751	-48.57948303222658	1302.802856445313	-748.8285522460939	-63.96593093872072	1250.904418945313	-809.3984985351565	198.611068725586	1335.199096679688	-894.3933105468752	210.7533264160157	1301.8408203125	-822.8002929687502	278.9922790527344	1355.558471679688	-894.637878417969	-235.5830230712891	1032.920654296875	-1160.523681640625	-256.1320190429688	1031.04443359375	-912.767517089844	-412.6781005859376	1151.558837890625	-1051.51953125	-422.5188903808595	1122.174560546875	-1081.575805664063	-426.6919860839845	1119.814453125	-1024.122314453125	-301.5269470214844	796.157653808594	-1244.754150390625	-261.5194091796876	721.1127929687501	-1229.327026367188	-216.4506835937501	732.0245361328126	-1214.546875	-285.9111328125001	668.8645019531251	-1209.064453125	-273.5074462890626	516.8414916992189	-1167.138061523438	-257.8013305664063	531.0529174804689	-1029.679077148438	-252.8565521240235	359.6623840332032	-1092.199340820313	-303.2350769042969	310.8894653320313	-1144.07470703125	-265.5242919921876	307.8507385253907	-1118.109619140625	-283.9241943359376	238.1209869384766	-1073.746215820313	-358.4487304687501	109.8372802734375	-1100.231323242188	-328.6703186035157	132.6605377197266	-1009.577575683594	-427.4195861816407	101.6396789550782	-1040.894287109375	-216.923812866211	54.81087875366212	-1019.111450195313	-207.9763336181641	55.77362442016603	-1067.940063476563	-260.7413940429688	40.33757019042969	-1119.829956054688	-364.9295654296876	743.8955688476564	-824.8393554687502	-327.8402404785157	687.9858398437501	-816.3501586914065	-294.4081115722657	685.8823852539064	-819.1591796875002	-358.7937927246094	610.9440917968751	-830.7969970703127	-381.3127136230469	564.2502441406251	-838.6331787109377	-317.5117797851563	521.6112060546876	-956.8316650390627	-456.9555969238282	487.4125061035157	-866.966003417969	-543.3778686523439	550.1397094726564	-865.6609497070315	-542.6186523437501	504.5109252929689	-871.336120605469	-580.5871582031251	482.9249572753907	-910.1956176757815	-754.9852294921876	524.8046264648439	-942.3378906250002	-715.3804931640626	486.5271301269532	-1019.752197265625	-735.8973388671876	591.3546142578126	-998.8492431640627	-831.4279785156252	400.1246643066407	-1056.126831054688	-848.4710693359377	393.3034667968751	-1010.498291015625	-868.096374511719	445.1143798828126	-968.248962402344	
577	2.88	-99.08594512939456	1759.920776367188	-1077.580932617188	-260.6308898925782	1706.071166992188	-1147.956665039063	-278.5317993164063	1709.288818359375	-1008.515197753906	-314.6522216796876	1551.072509765625	-1061.800537109375	-395.1510009765626	1232.319946289063	-1052.9033203125	-179.8891143798828	1474.887939453125	-1064.801391601563	-242.8714752197266	1534.687133789063	-1216.35009765625	-148.2430572509766	1371.150634765625	-1357.467651367188	-104.7673797607422	1393.94140625	-1352.6669921875	-88.13687133789064	1343.296020507813	-1378.867431640625	-31.82983589172364	1328.667236328125	-1386.156860351563	-42.98482513427735	1266.3544921875	-1335.96923828125	225.2740020751954	1303.002807617188	-1305.444091796875	232.2186737060547	1262.739501953125	-1372.285888671875	314.8477478027344	1307.847534179688	-1325.184448242188	-235.4061737060547	1538.582275390625	-912.9517211914065	-144.3825378417969	1364.999633789063	-770.7619628906252	-98.87400054931643	1380.079467773438	-775.3440551757815	-89.54601287841798	1324.697265625	-753.3591308593751	-47.63134384155274	1302.479248046875	-748.8606567382814	-62.61139297485353	1250.595092773438	-809.586608886719	199.8221588134766	1334.858520507813	-894.1107177734377	212.0209655761719	1301.42578125	-822.5242919921877	279.7406311035157	1355.297485351563	-893.9946899414065	-236.0838928222657	1032.586059570313	-1160.591674804688	-256.5881347656251	1030.272705078125	-912.806579589844	-413.0227050781251	1151.111328125	-1051.408569335938	-423.3987121582032	1121.862548828125	-1081.437744140625	-427.7010803222657	1119.536743164063	-1023.803955078125	-301.7172851562501	795.6270751953127	-1244.849365234375	-261.2968750000001	720.8316040039064	-1229.45556640625	-216.5225677490235	731.8543090820314	-1214.853637695313	-285.7785034179688	668.4174194335939	-1209.184204101563	-272.6474304199219	516.5324096679689	-1167.326049804688	-256.8817138671876	530.7926635742189	-1029.942626953125	-252.230209350586	359.4173278808594	-1092.235473632813	-302.7060241699219	310.7641296386719	-1144.122802734375	-265.1752319335938	307.5580749511719	-1118.168090820313	-283.6315612792969	237.9440460205079	-1073.62158203125	-358.4536132812501	109.9154129028321	-1100.226684570313	-328.5812377929688	132.6323394775391	-1009.539611816406	-427.3875427246095	101.6531982421875	-1040.89111328125	-216.9250793457032	54.7779998779297	-1019.110534667969	-208.2613983154297	55.81666946411134	-1068.106323242188	-260.7353210449219	40.38473510742188	-1119.862182617188	-365.3493347167969	743.1807861328126	-825.150817871094	-328.5303955078126	687.2412109375001	-816.5899047851565	-294.9890136718751	685.1660156250001	-819.5650024414065	-359.5036621093751	610.2020874023439	-831.2051391601565	-381.7539672851563	563.3277587890626	-839.1607055664065	-317.8782653808594	521.1926879882814	-957.417907714844	-457.570526123047	486.8109741210939	-867.2880859375002	-544.2061157226564	549.4299316406251	-866.0315551757815	-543.3822021484376	503.7365722656251	-871.6503906250002	-581.3124389648439	482.3202514648439	-910.4233398437502	-755.5325317382814	524.1754150390626	-942.503601074219	-716.1090087890626	486.0213012695314	-1020.024536132813	-736.6069946289064	590.7166137695314	-999.093933105469	-831.8077392578127	399.281463623047	-1055.760620117188	-848.8371582031252	392.7703247070314	-1010.907653808594	-868.5491333007815	444.3802490234376	-968.531677246094	
578	2.885	-98.795524597168	1759.19384765625	-1077.209716796875	-260.2278747558594	1705.376342773438	-1147.641723632813	-278.0895690917969	1708.452880859375	-1008.196411132813	-314.2673645019532	1550.477294921875	-1061.508178710938	-395.2976379394532	1231.839233398438	-1052.734619140625	-179.650375366211	1474.364013671875	-1064.520141601563	-242.3847351074219	1534.327758789063	-1215.955078125	-147.5810241699219	1371.046630859375	-1357.356079101563	-104.3316116333008	1393.755493164063	-1352.483154296875	-87.53179931640626	1343.137939453125	-1378.738525390625	-31.20114517211915	1328.630615234375	-1385.994140625	-42.45661163330079	1266.163940429688	-1335.900756835938	225.7614288330079	1302.783813476563	-1305.216796875	232.7240295410157	1262.6572265625	-1372.095458984375	315.6524658203126	1307.61376953125	-1324.8564453125	-234.9757232666016	1537.750122070313	-912.7089843750002	-143.6140441894532	1364.627319335938	-770.644470214844	-98.05832672119143	1379.688842773438	-775.472106933594	-88.58298492431642	1324.287841796875	-753.3476562500001	-46.86840820312501	1302.24951171875	-748.8374633789064	-61.8566131591797	1250.344116210938	-809.3582763671877	200.7663879394532	1334.47021484375	-893.944763183594	212.9546813964844	1301.123168945313	-822.1458740234377	280.9894409179688	1354.845947265625	-893.7634887695315	-236.6542205810547	1032.050659179688	-1160.747192382813	-257.1206665039063	1029.32421875	-912.9217529296877	-413.3330078125001	1150.65771484375	-1051.26025390625	-424.0253906250001	1121.563232421875	-1081.27001953125	-428.011199951172	1119.044555664063	-1023.6533203125	-301.9878234863282	795.1561279296877	-1245.047607421875	-261.6291809082032	720.8160400390626	-1229.714477539063	-216.6122283935547	731.7285156250001	-1215.161499023438	-286.0117492675782	668.2590942382814	-1209.234619140625	-271.9527587890626	516.2830810546876	-1167.487426757813	-256.4603881835938	530.4259643554689	-1030.151123046875	-251.5455627441407	359.2270202636719	-1092.427734375	-302.1546020507813	310.5740966796876	-1144.167114257813	-264.7000122070313	307.3651123046876	-1118.164672851563	-283.2404785156251	237.7321319580079	-1073.676879882813	-358.4542236328126	109.9054336547852	-1100.161865234375	-328.5614318847657	132.6604461669922	-1009.482299804688	-427.3657531738282	101.6233139038086	-1040.810791015625	-216.9529571533204	54.76498413085939	-1019.088989257813	-208.3077239990235	55.83660125732423	-1068.101684570313	-260.7317810058594	40.41310119628907	-1119.849487304688	-365.9793090820313	742.3889770507814	-825.4094238281252	-329.1479797363282	686.2933349609376	-816.807067871094	-295.5041503906251	684.6083374023439	-819.8583984375002	-359.9000854492188	609.4808349609376	-831.637634277344	-382.4418640136719	562.5586547851564	-839.521179199219	-318.4310302734376	520.6372070312501	-957.9854736328127	-457.8671264648439	486.036834716797	-867.9313964843752	-544.6820678710939	548.7811279296876	-866.1929931640627	-543.9659423828126	502.8780212402345	-872.052917480469	-581.7086791992189	481.5926818847657	-910.9863281250002	-756.0023803710939	523.3953247070314	-942.884704589844	-716.7283325195314	485.4590454101564	-1020.325744628906	-737.3262939453126	590.1446533203126	-999.170104980469	-832.3875122070315	398.6161193847657	-1056.187866210938	-849.3356933593752	391.9530029296876	-1011.324890136719	-869.2042236328127	443.7363891601564	-968.6597290039065	
579	2.89	-98.20612335205081	1758.353881835938	-1076.898071289063	-259.4143981933594	1704.721801757813	-1147.22705078125	-277.7815856933594	1707.9658203125	-1007.860534667969	-313.8381958007813	1549.917358398438	-1061.190185546875	-395.6346740722657	1231.465576171875	-1052.5263671875	-179.2831573486328	1473.289672851563	-1064.380493164063	-241.806869506836	1533.901123046875	-1215.546875	-146.9307861328125	1370.885986328125	-1357.233154296875	-103.6454849243164	1393.6435546875	-1352.254760742188	-87.29211425781251	1343.223022460938	-1378.492797851563	-30.63520240783692	1328.494262695313	-1385.807495117188	-41.80490875244141	1266.029052734375	-1335.83203125	226.3937988281251	1302.505126953125	-1304.94921875	233.2701416015626	1262.499145507813	-1371.977416992188	316.1371765136719	1307.52734375	-1324.57568359375	-234.6342773437501	1537.127807617188	-912.4653930664065	-142.6962432861328	1364.182006835938	-770.5670166015627	-97.18003845214847	1379.346435546875	-775.3302001953127	-87.74661254882814	1323.955322265625	-753.3739624023439	-45.71353912353516	1301.946655273438	-748.9313354492189	-60.8617286682129	1250.064453125	-809.351257324219	201.931137084961	1334.13720703125	-893.7436523437502	213.9228668212891	1300.764282226563	-821.8800048828127	282.1187744140626	1354.692504882813	-893.5021972656252	-237.4343872070313	1031.401733398438	-1160.827270507813	-257.6958007812501	1028.553588867188	-912.998474121094	-413.4919738769532	1150.2197265625	-1051.201904296875	-424.507781982422	1121.181884765625	-1081.18115234375	-428.2942504882814	1118.455932617188	-1023.581970214844	-302.1906433105469	794.734069824219	-1245.301025390625	-261.1859436035157	720.3353271484376	-1229.708618164063	-216.6177215576172	731.5364990234376	-1215.313110351563	-285.5215148925782	667.6658325195314	-1209.379150390625	-271.0597229003907	515.9460449218751	-1167.636596679688	-255.4039916992188	530.6557617187501	-1030.304443359375	-250.8921203613282	359.1672973632813	-1092.677124023438	-301.6807250976563	310.4407653808594	-1144.225830078125	-263.9942932128907	307.2556762695313	-1118.26025390625	-282.7679138183594	237.5770263671876	-1073.665283203125	-358.4975891113282	109.948974609375	-1100.1240234375	-328.5093383789063	132.6757965087891	-1009.438415527344	-427.3515930175782	101.635726928711	-1040.828979492188	-216.895736694336	54.76797103881837	-1019.110778808594	-208.2557525634766	55.89077758789064	-1068.085571289063	-260.7586669921876	40.4114112854004	-1119.825561523438	-366.2837524414063	741.6825561523439	-825.652526855469	-329.5534973144532	685.6984252929689	-817.2921142578127	-296.1990661621094	683.7541503906251	-820.1899414062502	-360.8160095214844	608.7353515625001	-831.791931152344	-382.8898620605469	562.0349121093751	-839.8230590820315	-319.0026855468751	520.0026855468751	-958.531188964844	-458.404266357422	485.106170654297	-868.4799804687502	-545.1149902343751	547.8718261718751	-866.5012817382815	-544.3863525390626	502.2743225097657	-872.548278808594	-582.2254638671876	480.8150024414064	-911.3404541015627	-756.6212768554689	522.5943603515626	-943.0146484375002	-717.2071533203126	484.8034057617189	-1020.632263183594	-738.1694946289064	589.4405517578126	-999.2922973632815	-832.886901855469	398.3111267089845	-1056.838256835938	-849.9397583007815	391.222381591797	-1011.776245117188	-869.715026855469	442.9993591308595	-969.001159667969	
